mtllib post.mtl

vn -1 0 0
vn 1 0 0
vn 0 0 1
vn 0 0 -1
vn 0 -1 0
vn 0 1 0

vt 0.845703 0.5
vt 0.955078 0.5
vt 0.958984 0.5
vt 0.966797 0.5
vt 0.986328 0.5

v -1.1 0 1
v -1.1 0 -1.2
v -1.1 0.1 1
v -1.1 0.1 -1.2
v -1.1 1.6 1
v -1.1 1.6 -1.2
v -1.1 3.8 1
v -1.1 3.8 -1.2
v -1 1.5 0.9
v -1 1.5 -1.1
v -1 1.6 0.9
v -1 1.6 -1.1
v -0.9 1.4 0.8
v -0.9 1.4 -1
v -0.9 1.5 0.8
v -0.9 1.5 -1
v -0.8 1.3 0.7
v -0.8 1.3 -0.9
v -0.8 1.4 0.7
v -0.8 1.4 -0.9
v -0.7 0.1 0.2
v -0.7 0.1 -0.4
v -0.7 1.2 0.6
v -0.7 1.2 0.2
v -0.7 1.2 -0.4
v -0.7 1.2 -0.8
v -0.7 1.3 0.6
v -0.7 1.3 -0.8
v -0.7 3.4 1.1
v -0.7 3.4 1
v -0.7 3.5 1.1
v -0.7 3.5 1
v -0.6 0.1 0.3
v -0.6 0.1 0.2
v -0.6 0.1 -0.4
v -0.6 0.1 -0.5
v -0.6 1.2 0.3
v -0.6 1.2 0.2
v -0.6 1.2 -0.4
v -0.6 1.2 -0.5
v -0.5 0.1 0.4
v -0.5 0.1 0.3
v -0.5 0.1 -0.5
v -0.5 0.1 -0.6
v -0.5 1.2 0.4
v -0.5 1.2 0.3
v -0.5 1.2 -0.5
v -0.5 1.2 -0.6
v -0.4 0.1 0.5
v -0.4 0.1 0.4
v -0.4 0.1 -0.6
v -0.4 0.1 -0.7
v -0.4 1.2 0.5
v -0.4 1.2 0.4
v -0.4 1.2 -0.6
v -0.4 1.2 -0.7
v -0.3 0.1 0.6
v -0.3 0.1 0.5
v -0.3 0.1 -0.7
v -0.3 0.1 -0.8
v -0.3 1.2 0.6
v -0.3 1.2 0.5
v -0.3 1.2 -0.7
v -0.3 1.2 -0.8
v -0.2 3.1 0.8
v -0.2 3.1 0.7
v -0.2 3.2 0.7
v -0.2 3.2 0.6
v -0.2 3.3 0.7
v -0.2 3.3 0.6
v -0.2 3.4 0.8
v -0.2 3.4 0.7
v -0.1 3 0.9
v -0.1 3 0.8
v -0.1 3.4 0.9
v -0.1 3.4 0.8
v 0.1 3.4 1.1
v 0.1 3.4 1
v 0.1 3.5 1.1
v 0.1 3.5 1
v 0.6 3.1 0.8
v 0.6 3.1 0.7
v 0.6 3.2 0.7
v 0.6 3.2 0.6
v 0.6 3.3 0.7
v 0.6 3.3 0.6
v 0.6 3.4 0.8
v 0.6 3.4 0.7
v 0.7 3 0.9
v 0.7 3 0.8
v 0.7 3.4 0.9
v 0.7 3.4 0.8
v 0.8 2.8 1
v 0.8 2.8 0.9
v 0.8 3.4 1
v 0.8 3.4 0.9
v -0.8 2.8 1
v -0.8 2.8 0.9
v -0.8 3.4 1
v -0.8 3.4 0.9
v -0.7 3 0.9
v -0.7 3 0.8
v -0.7 3.4 0.9
v -0.7 3.4 0.8
v -0.6 3.1 0.8
v -0.6 3.1 0.7
v -0.6 3.2 0.7
v -0.6 3.2 0.6
v -0.6 3.3 0.7
v -0.6 3.3 0.6
v -0.6 3.4 0.8
v -0.6 3.4 0.7
v -0.1 3.4 1.1
v -0.1 3.4 1
v -0.1 3.5 1.1
v -0.1 3.5 1
v 0.1 3 0.9
v 0.1 3 0.8
v 0.1 3.4 0.9
v 0.1 3.4 0.8
v 0.2 3.1 0.8
v 0.2 3.1 0.7
v 0.2 3.2 0.7
v 0.2 3.2 0.6
v 0.2 3.3 0.7
v 0.2 3.3 0.6
v 0.2 3.4 0.8
v 0.2 3.4 0.7
v 0.3 0.1 0.6
v 0.3 0.1 0.5
v 0.3 1.1 -0.7
v 0.3 1.1 -0.8
v 0.3 1.2 0.6
v 0.3 1.2 0.5
v 0.3 1.2 -0.7
v 0.3 1.2 -0.8
v 0.4 0.1 0.5
v 0.4 0.1 0.4
v 0.4 0.1 -0.6
v 0.4 0.1 -0.8
v 0.4 1.1 -0.7
v 0.4 1.1 -0.8
v 0.4 1.2 0.5
v 0.4 1.2 0.4
v 0.4 1.2 -0.6
v 0.4 1.2 -0.7
v 0.5 0.1 0.4
v 0.5 0.1 0.3
v 0.5 0.1 -0.5
v 0.5 0.1 -0.6
v 0.5 1.2 0.4
v 0.5 1.2 0.3
v 0.5 1.2 -0.5
v 0.5 1.2 -0.6
v 0.6 0.1 0.3
v 0.6 0.1 0.2
v 0.6 0.1 -0.4
v 0.6 0.1 -0.5
v 0.6 1.2 0.3
v 0.6 1.2 0.2
v 0.6 1.2 -0.4
v 0.6 1.2 -0.5
v 0.7 0.1 0.2
v 0.7 0.1 -0.4
v 0.7 1.2 0.6
v 0.7 1.2 0.2
v 0.7 1.2 -0.4
v 0.7 1.2 -0.8
v 0.7 1.3 0.6
v 0.7 1.3 -0.8
v 0.7 3.4 1.1
v 0.7 3.4 1
v 0.7 3.5 1.1
v 0.7 3.5 1
v 0.8 1.3 0.7
v 0.8 1.3 -0.9
v 0.8 1.4 0.7
v 0.8 1.4 -0.9
v 0.9 1.4 0.8
v 0.9 1.4 -1
v 0.9 1.5 0.8
v 0.9 1.5 -1
v 1 1.5 0.9
v 1 1.5 -1.1
v 1 1.6 0.9
v 1 1.6 -1.1
v 1.1 0 1
v 1.1 0 -1.2
v 1.1 0.1 1
v 1.1 0.1 -1.2
v 1.1 1.6 1
v 1.1 1.6 -1.2
v 1.1 3.8 1
v 1.1 3.8 -1.2
v -0.7 3.4 1.1
v -0.7 3.5 1.1
v -0.1 3.4 1.1
v -0.1 3.5 1.1
v 0.1 3.4 1.1
v 0.1 3.5 1.1
v 0.7 3.4 1.1
v 0.7 3.5 1.1
v -1.1 0 1
v -1.1 0.1 1
v -1.1 1.6 1
v -1.1 3.8 1
v -0.8 2.8 1
v -0.8 3.4 1
v -0.7 3.4 1
v -0.7 3.5 1
v -0.4 2.1 1
v -0.4 2.3 1
v -0.4 2.4 1
v -0.4 2.6 1
v -0.1 1.8 1
v -0.1 2.1 1
v -0.1 3.4 1
v -0.1 3.5 1
v 0.1 1.8 1
v 0.1 2.1 1
v 0.1 3.4 1
v 0.1 3.5 1
v 0.4 2.1 1
v 0.4 2.3 1
v 0.4 2.4 1
v 0.4 2.6 1
v 0.7 3.4 1
v 0.7 3.5 1
v 0.8 2.8 1
v 0.8 3.4 1
v 1.1 0 1
v 1.1 0.1 1
v 1.1 1.6 1
v 1.1 3.8 1
v -1 1.5 0.9
v -1 1.6 0.9
v -0.8 2.8 0.9
v -0.8 3.4 0.9
v -0.7 3 0.9
v -0.7 3.4 0.9
v -0.1 3 0.9
v -0.1 3.4 0.9
v 0.1 3 0.9
v 0.1 3.4 0.9
v 0.7 3 0.9
v 0.7 3.4 0.9
v 0.8 2.8 0.9
v 0.8 3.4 0.9
v 1 1.5 0.9
v 1 1.6 0.9
v -0.9 1.4 0.8
v -0.9 1.5 0.8
v -0.7 3 0.8
v -0.7 3.4 0.8
v -0.6 3.1 0.8
v -0.6 3.4 0.8
v -0.2 3.1 0.8
v -0.2 3.4 0.8
v -0.1 3 0.8
v -0.1 3.4 0.8
v 0.1 3 0.8
v 0.1 3.4 0.8
v 0.2 3.1 0.8
v 0.2 3.4 0.8
v 0.6 3.1 0.8
v 0.6 3.4 0.8
v 0.7 3 0.8
v 0.7 3.4 0.8
v 0.9 1.4 0.8
v 0.9 1.5 0.8
v -0.8 1.3 0.7
v -0.8 1.4 0.7
v -0.6 3.1 0.7
v -0.6 3.2 0.7
v -0.6 3.3 0.7
v -0.6 3.4 0.7
v -0.2 3.1 0.7
v -0.2 3.2 0.7
v -0.2 3.3 0.7
v -0.2 3.4 0.7
v 0.2 3.1 0.7
v 0.2 3.2 0.7
v 0.2 3.3 0.7
v 0.2 3.4 0.7
v 0.6 3.1 0.7
v 0.6 3.2 0.7
v 0.6 3.3 0.7
v 0.6 3.4 0.7
v 0.8 1.3 0.7
v 0.8 1.4 0.7
v -0.7 1.2 0.6
v -0.7 1.3 0.6
v -0.6 3.2 0.6
v -0.6 3.3 0.6
v -0.3 0.1 0.6
v -0.3 1.2 0.6
v -0.2 3.2 0.6
v -0.2 3.3 0.6
v 0.2 3.2 0.6
v 0.2 3.3 0.6
v 0.3 0.1 0.6
v 0.3 1.2 0.6
v 0.6 3.2 0.6
v 0.6 3.3 0.6
v 0.7 1.2 0.6
v 0.7 1.3 0.6
v -0.4 0.1 0.5
v -0.4 1.2 0.5
v -0.3 0.1 0.5
v -0.3 1.2 0.5
v 0.3 0.1 0.5
v 0.3 1.2 0.5
v 0.4 0.1 0.5
v 0.4 1.2 0.5
v -0.5 0.1 0.4
v -0.5 1.2 0.4
v -0.4 0.1 0.4
v -0.4 1.2 0.4
v 0.4 0.1 0.4
v 0.4 1.2 0.4
v 0.5 0.1 0.4
v 0.5 1.2 0.4
v -0.6 0.1 0.3
v -0.6 1.2 0.3
v -0.5 0.1 0.3
v -0.5 1.2 0.3
v 0.5 0.1 0.3
v 0.5 1.2 0.3
v 0.6 0.1 0.3
v 0.6 1.2 0.3
v -0.7 0.1 0.2
v -0.7 1.2 0.2
v -0.6 0.1 0.2
v -0.6 1.2 0.2
v 0.6 0.1 0.2
v 0.6 1.2 0.2
v 0.7 0.1 0.2
v 0.7 1.2 0.2
v -0.7 0.1 -0.4
v -0.7 1.2 -0.4
v -0.6 0.1 -0.4
v -0.6 1.2 -0.4
v 0.6 0.1 -0.4
v 0.6 1.2 -0.4
v 0.7 0.1 -0.4
v 0.7 1.2 -0.4
v -0.6 0.1 -0.5
v -0.6 1.2 -0.5
v -0.5 0.1 -0.5
v -0.5 1.2 -0.5
v 0.5 0.1 -0.5
v 0.5 1.2 -0.5
v 0.6 0.1 -0.5
v 0.6 1.2 -0.5
v -0.5 0.1 -0.6
v -0.5 1.2 -0.6
v -0.4 0.1 -0.6
v -0.4 1.2 -0.6
v 0.4 0.1 -0.6
v 0.4 1.2 -0.6
v 0.5 0.1 -0.6
v 0.5 1.2 -0.6
v -0.4 0.1 -0.7
v -0.4 1.2 -0.7
v -0.3 0.1 -0.7
v -0.3 1.2 -0.7
v 0.3 1.1 -0.7
v 0.3 1.2 -0.7
v 0.4 1.1 -0.7
v 0.4 1.2 -0.7
v -0.7 1.2 -0.8
v -0.7 1.3 -0.8
v -0.3 0.1 -0.8
v -0.3 1.2 -0.8
v 0.3 1.1 -0.8
v 0.3 1.2 -0.8
v 0.4 0.1 -0.8
v 0.4 1.1 -0.8
v 0.7 1.2 -0.8
v 0.7 1.3 -0.8
v -0.8 1.3 -0.9
v -0.8 1.4 -0.9
v 0.8 1.3 -0.9
v 0.8 1.4 -0.9
v -0.9 1.4 -1
v -0.9 1.5 -1
v 0.9 1.4 -1
v 0.9 1.5 -1
v -1 1.5 -1.1
v -1 1.6 -1.1
v 1 1.5 -1.1
v 1 1.6 -1.1
v -1.1 0 -1.2
v -1.1 0.1 -1.2
v -1.1 1.6 -1.2
v -1.1 3.8 -1.2
v 1.1 0 -1.2
v 1.1 0.1 -1.2
v 1.1 1.6 -1.2
v 1.1 3.8 -1.2
v -1.1 0 1
v 1.1 0 1
v -1.1 0 -1.2
v 1.1 0 -1.2
v -0.7 1.2 0.6
v -0.3 1.2 0.6
v 0.3 1.2 0.6
v 0.7 1.2 0.6
v -0.4 1.2 0.5
v -0.3 1.2 0.5
v 0.3 1.2 0.5
v 0.4 1.2 0.5
v -0.5 1.2 0.4
v -0.4 1.2 0.4
v 0.4 1.2 0.4
v 0.5 1.2 0.4
v -0.6 1.2 0.3
v -0.5 1.2 0.3
v 0.5 1.2 0.3
v 0.6 1.2 0.3
v -0.7 1.2 0.2
v -0.6 1.2 0.2
v 0.6 1.2 0.2
v 0.7 1.2 0.2
v -0.7 1.2 -0.4
v -0.6 1.2 -0.4
v 0.6 1.2 -0.4
v 0.7 1.2 -0.4
v -0.6 1.2 -0.5
v -0.5 1.2 -0.5
v 0.5 1.2 -0.5
v 0.6 1.2 -0.5
v -0.5 1.2 -0.6
v -0.4 1.2 -0.6
v 0.4 1.2 -0.6
v 0.5 1.2 -0.6
v -0.4 1.2 -0.7
v -0.3 1.2 -0.7
v 0.3 1.2 -0.7
v 0.4 1.2 -0.7
v -0.7 1.2 -0.8
v -0.3 1.2 -0.8
v 0.3 1.2 -0.8
v 0.7 1.2 -0.8
v -0.8 1.3 0.7
v 0.8 1.3 0.7
v -0.7 1.3 0.6
v 0.7 1.3 0.6
v -0.7 1.3 -0.8
v 0.7 1.3 -0.8
v -0.8 1.3 -0.9
v 0.8 1.3 -0.9
v -0.9 1.4 0.8
v 0.9 1.4 0.8
v -0.8 1.4 0.7
v 0.8 1.4 0.7
v -0.8 1.4 -0.9
v 0.8 1.4 -0.9
v -0.9 1.4 -1
v 0.9 1.4 -1
v -1 1.5 0.9
v 1 1.5 0.9
v -0.9 1.5 0.8
v 0.9 1.5 0.8
v -0.9 1.5 -1
v 0.9 1.5 -1
v -1 1.5 -1.1
v 1 1.5 -1.1
v -1.1 1.6 1
v 1.1 1.6 1
v -1 1.6 0.9
v 1 1.6 0.9
v -1 1.6 -1.1
v 1 1.6 -1.1
v -1.1 1.6 -1.2
v 1.1 1.6 -1.2
v -0.6 3.3 0.7
v -0.2 3.3 0.7
v 0.2 3.3 0.7
v 0.6 3.3 0.7
v -0.6 3.3 0.6
v -0.2 3.3 0.6
v 0.2 3.3 0.6
v 0.6 3.3 0.6
v -0.7 3.4 1.1
v -0.1 3.4 1.1
v 0.1 3.4 1.1
v 0.7 3.4 1.1
v -0.8 3.4 1
v -0.7 3.4 1
v -0.1 3.4 1
v 0.1 3.4 1
v 0.7 3.4 1
v 0.8 3.4 1
v -0.8 3.4 0.9
v -0.7 3.4 0.9
v -0.1 3.4 0.9
v 0.1 3.4 0.9
v 0.7 3.4 0.9
v 0.8 3.4 0.9
v -0.7 3.4 0.8
v -0.6 3.4 0.8
v -0.2 3.4 0.8
v -0.1 3.4 0.8
v 0.1 3.4 0.8
v 0.2 3.4 0.8
v 0.6 3.4 0.8
v 0.7 3.4 0.8
v -0.6 3.4 0.7
v -0.2 3.4 0.7
v 0.2 3.4 0.7
v 0.6 3.4 0.7
v -1.1 0.1 1
v 1.1 0.1 1
v -0.3 0.1 0.6
v 0.3 0.1 0.6
v -0.4 0.1 0.5
v -0.3 0.1 0.5
v 0.3 0.1 0.5
v 0.4 0.1 0.5
v -0.5 0.1 0.4
v -0.4 0.1 0.4
v 0.4 0.1 0.4
v 0.5 0.1 0.4
v -0.6 0.1 0.3
v -0.5 0.1 0.3
v 0.5 0.1 0.3
v 0.6 0.1 0.3
v -0.7 0.1 0.2
v -0.6 0.1 0.2
v 0.6 0.1 0.2
v 0.7 0.1 0.2
v -0.7 0.1 -0.4
v -0.6 0.1 -0.4
v 0.6 0.1 -0.4
v 0.7 0.1 -0.4
v -0.6 0.1 -0.5
v -0.5 0.1 -0.5
v 0.5 0.1 -0.5
v 0.6 0.1 -0.5
v -0.5 0.1 -0.6
v -0.4 0.1 -0.6
v 0.4 0.1 -0.6
v 0.5 0.1 -0.6
v -0.4 0.1 -0.7
v -0.3 0.1 -0.7
v -0.3 0.1 -0.8
v 0.4 0.1 -0.8
v -1.1 0.1 -1.2
v 1.1 0.1 -1.2
v 0.3 1.1 -0.7
v 0.4 1.1 -0.7
v 0.3 1.1 -0.8
v 0.4 1.1 -0.8
v -0.8 2.8 1
v 0.8 2.8 1
v -0.8 2.8 0.9
v 0.8 2.8 0.9
v -0.7 3 0.9
v -0.1 3 0.9
v 0.1 3 0.9
v 0.7 3 0.9
v -0.7 3 0.8
v -0.1 3 0.8
v 0.1 3 0.8
v 0.7 3 0.8
v -0.6 3.1 0.8
v -0.2 3.1 0.8
v 0.2 3.1 0.8
v 0.6 3.1 0.8
v -0.6 3.1 0.7
v -0.2 3.1 0.7
v 0.2 3.1 0.7
v 0.6 3.1 0.7
v -0.6 3.2 0.7
v -0.2 3.2 0.7
v 0.2 3.2 0.7
v 0.6 3.2 0.7
v -0.6 3.2 0.6
v -0.2 3.2 0.6
v 0.2 3.2 0.6
v 0.6 3.2 0.6
v -0.7 3.5 1.1
v -0.1 3.5 1.1
v 0.1 3.5 1.1
v 0.7 3.5 1.1
v -0.7 3.5 1
v -0.1 3.5 1
v 0.1 3.5 1
v 0.7 3.5 1
v -1.1 3.8 1
v 1.1 3.8 1
v -1.1 3.8 -1.2
v 1.1 3.8 -1.2

usemtl Material02
f 3/5/1 2/5/1 1/5/1
f 4/5/1 2/5/1 3/5/1
f 7/1/1 6/1/1 5/1/1
f 8/1/1 6/1/1 7/1/1
f 11/1/1 10/1/1 9/1/1
f 12/1/1 10/1/1 11/1/1
f 15/1/1 14/1/1 13/1/1
f 16/1/1 14/1/1 15/1/1
f 19/1/1 18/1/1 17/1/1
f 20/1/1 18/1/1 19/1/1
f 24/2/1 22/2/1 21/2/1
f 25/2/1 22/2/1 24/2/1
f 27/1/1 24/1/1 23/1/1
f 27/1/1 26/1/1 25/1/1
f 27/1/1 25/1/1 24/1/1
f 28/1/1 26/1/1 27/1/1
f 31/3/1 30/3/1 29/3/1
f 32/3/1 30/3/1 31/3/1
f 37/2/1 34/2/1 33/2/1
f 38/2/1 34/2/1 37/2/1
f 39/2/1 36/2/1 35/2/1
f 40/2/1 36/2/1 39/2/1
f 45/2/1 42/2/1 41/2/1
f 46/2/1 42/2/1 45/2/1
f 47/2/1 44/2/1 43/2/1
f 48/2/1 44/2/1 47/2/1
f 53/2/1 50/2/1 49/2/1
f 54/2/1 50/2/1 53/2/1
f 55/2/1 52/2/1 51/2/1
f 56/2/1 52/2/1 55/2/1
f 61/2/1 58/2/1 57/2/1
f 62/2/1 58/2/1 61/2/1
f 63/2/1 60/2/1 59/2/1
f 64/2/1 60/2/1 63/2/1
f 67/4/1 66/4/1 65/4/1
f 69/4/1 67/4/1 65/4/1
f 69/2/1 68/2/1 67/2/1
f 70/2/1 68/2/1 69/2/1
f 71/4/1 69/4/1 65/4/1
f 72/4/1 69/4/1 71/4/1
f 75/4/1 74/4/1 73/4/1
f 76/4/1 74/4/1 75/4/1
f 79/3/1 78/3/1 77/3/1
f 80/3/1 78/3/1 79/3/1
f 83/4/1 82/4/1 81/4/1
f 85/4/1 83/4/1 81/4/1
f 85/2/1 84/2/1 83/2/1
f 86/2/1 84/2/1 85/2/1
f 87/4/1 85/4/1 81/4/1
f 88/4/1 85/4/1 87/4/1
f 91/4/1 90/4/1 89/4/1
f 92/4/1 90/4/1 91/4/1
f 95/1/1 94/1/1 93/1/1
f 96/1/1 94/1/1 95/1/1
f 97/1/2 98/1/2 99/1/2
f 99/1/2 98/1/2 100/1/2
f 101/4/2 102/4/2 103/4/2
f 103/4/2 102/4/2 104/4/2
f 105/4/2 106/4/2 107/4/2
f 105/4/2 107/4/2 109/4/2
f 107/2/2 108/2/2 109/2/2
f 109/2/2 108/2/2 110/2/2
f 105/4/2 109/4/2 111/4/2
f 111/4/2 109/4/2 112/4/2
f 113/3/2 114/3/2 115/3/2
f 115/3/2 114/3/2 116/3/2
f 117/4/2 118/4/2 119/4/2
f 119/4/2 118/4/2 120/4/2
f 121/4/2 122/4/2 123/4/2
f 121/4/2 123/4/2 125/4/2
f 123/2/2 124/2/2 125/2/2
f 125/2/2 124/2/2 126/2/2
f 121/4/2 125/4/2 127/4/2
f 127/4/2 125/4/2 128/4/2
f 129/2/2 130/2/2 133/2/2
f 133/2/2 130/2/2 134/2/2
f 131/2/2 132/2/2 135/2/2
f 135/2/2 132/2/2 136/2/2
f 139/2/2 140/2/2 141/2/2
f 141/2/2 140/2/2 142/2/2
f 137/2/2 138/2/2 143/2/2
f 143/2/2 138/2/2 144/2/2
f 139/2/2 141/2/2 145/2/2
f 145/2/2 141/2/2 146/2/2
f 147/2/2 148/2/2 151/2/2
f 151/2/2 148/2/2 152/2/2
f 149/2/2 150/2/2 153/2/2
f 153/2/2 150/2/2 154/2/2
f 155/2/2 156/2/2 159/2/2
f 159/2/2 156/2/2 160/2/2
f 157/2/2 158/2/2 161/2/2
f 161/2/2 158/2/2 162/2/2
f 163/2/2 164/2/2 166/2/2
f 166/2/2 164/2/2 167/2/2
f 165/1/2 166/1/2 169/1/2
f 167/1/2 168/1/2 169/1/2
f 166/1/2 167/1/2 169/1/2
f 169/1/2 168/1/2 170/1/2
f 171/3/2 172/3/2 173/3/2
f 173/3/2 172/3/2 174/3/2
f 175/1/2 176/1/2 177/1/2
f 177/1/2 176/1/2 178/1/2
f 179/1/2 180/1/2 181/1/2
f 181/1/2 180/1/2 182/1/2
f 183/1/2 184/1/2 185/1/2
f 185/1/2 184/1/2 186/1/2
f 187/5/2 188/5/2 189/5/2
f 189/5/2 188/5/2 190/5/2
f 191/1/2 192/1/2 193/1/2
f 193/1/2 192/1/2 194/1/2
f 197/3/3 196/3/3 195/3/3
f 198/3/3 196/3/3 197/3/3
f 201/3/3 200/3/3 199/3/3
f 202/3/3 200/3/3 201/3/3
f 207/1/3 206/1/3 205/1/3
f 208/1/3 206/1/3 207/1/3
f 209/1/3 206/1/3 208/1/3
f 210/1/3 206/1/3 209/1/3
f 211/1/3 207/1/3 205/1/3
f 212/1/3 207/1/3 211/1/3
f 213/1/3 207/1/3 212/1/3
f 214/1/3 207/1/3 213/1/3
f 215/1/3 211/1/3 205/1/3
f 216/3/3 212/3/3 211/3/3
f 216/1/3 211/1/3 215/1/3
f 218/1/3 206/1/3 210/1/3
f 219/1/3 215/1/3 205/1/3
f 219/3/3 216/3/3 215/3/3
f 220/3/3 212/3/3 216/3/3
f 220/3/3 216/3/3 219/3/3
f 221/1/3 218/1/3 217/1/3
f 222/1/3 206/1/3 218/1/3
f 222/1/3 218/1/3 221/1/3
f 223/3/3 212/3/3 220/3/3
f 223/1/3 220/1/3 219/1/3
f 224/1/3 213/1/3 212/1/3
f 224/3/3 212/3/3 223/3/3
f 225/3/3 214/3/3 213/3/3
f 225/1/3 213/1/3 224/1/3
f 226/1/3 207/1/3 214/1/3
f 226/3/3 214/3/3 225/3/3
f 228/1/3 206/1/3 222/1/3
f 229/1/3 225/1/3 224/1/3
f 229/1/3 207/1/3 226/1/3
f 229/1/3 224/1/3 223/1/3
f 229/1/3 226/1/3 225/1/3
f 230/1/3 228/1/3 227/1/3
f 231/5/3 204/5/3 203/5/3
f 232/5/3 204/5/3 231/5/3
f 233/1/3 230/1/3 229/1/3
f 233/1/3 219/1/3 205/1/3
f 233/1/3 229/1/3 223/1/3
f 233/1/3 223/1/3 219/1/3
f 234/1/3 228/1/3 230/1/3
f 234/1/3 230/1/3 233/1/3
f 234/1/3 206/1/3 228/1/3
f 239/4/3 238/4/3 237/4/3
f 240/4/3 238/4/3 239/4/3
f 241/4/3 239/4/3 237/4/3
f 243/4/3 241/4/3 237/4/3
f 243/4/3 242/4/3 241/4/3
f 244/4/3 242/4/3 243/4/3
f 245/4/3 243/4/3 237/4/3
f 247/4/3 245/4/3 237/4/3
f 247/4/3 246/4/3 245/4/3
f 248/4/3 246/4/3 247/4/3
f 249/1/3 236/1/3 235/1/3
f 250/1/3 236/1/3 249/1/3
f 255/4/3 254/4/3 253/4/3
f 256/4/3 254/4/3 255/4/3
f 257/4/3 255/4/3 253/4/3
f 259/4/3 257/4/3 253/4/3
f 259/4/3 258/4/3 257/4/3
f 260/4/3 258/4/3 259/4/3
f 263/4/3 262/4/3 261/4/3
f 264/4/3 262/4/3 263/4/3
f 265/4/3 263/4/3 261/4/3
f 267/4/3 265/4/3 261/4/3
f 267/4/3 266/4/3 265/4/3
f 268/4/3 266/4/3 267/4/3
f 269/1/3 252/1/3 251/1/3
f 270/1/3 252/1/3 269/1/3
f 277/4/3 274/4/3 273/4/3
f 278/4/3 274/4/3 277/4/3
f 279/4/3 276/4/3 275/4/3
f 280/4/3 276/4/3 279/4/3
f 285/4/3 282/4/3 281/4/3
f 286/4/3 282/4/3 285/4/3
f 287/4/3 284/4/3 283/4/3
f 288/4/3 284/4/3 287/4/3
f 289/1/3 272/1/3 271/1/3
f 290/1/3 272/1/3 289/1/3
f 296/1/3 292/1/3 291/1/3
f 297/2/3 294/2/3 293/2/3
f 298/2/3 294/2/3 297/2/3
f 301/2/3 296/2/3 295/2/3
f 302/1/3 292/1/3 296/1/3
f 302/2/3 296/2/3 301/2/3
f 303/2/3 300/2/3 299/2/3
f 304/2/3 300/2/3 303/2/3
f 305/1/3 292/1/3 302/1/3
f 306/1/3 292/1/3 305/1/3
f 309/2/3 308/2/3 307/2/3
f 310/2/3 308/2/3 309/2/3
f 313/2/3 312/2/3 311/2/3
f 314/2/3 312/2/3 313/2/3
f 317/2/3 316/2/3 315/2/3
f 318/2/3 316/2/3 317/2/3
f 321/2/3 320/2/3 319/2/3
f 322/2/3 320/2/3 321/2/3
f 325/2/3 324/2/3 323/2/3
f 326/2/3 324/2/3 325/2/3
f 329/2/3 328/2/3 327/2/3
f 330/2/3 328/2/3 329/2/3
f 333/2/3 332/2/3 331/2/3
f 334/2/3 332/2/3 333/2/3
f 337/2/3 336/2/3 335/2/3
f 338/2/3 336/2/3 337/2/3
f 339/2/4 340/2/4 341/2/4
f 341/2/4 340/2/4 342/2/4
f 343/2/4 344/2/4 345/2/4
f 345/2/4 344/2/4 346/2/4
f 347/2/4 348/2/4 349/2/4
f 349/2/4 348/2/4 350/2/4
f 351/2/4 352/2/4 353/2/4
f 353/2/4 352/2/4 354/2/4
f 355/2/4 356/2/4 357/2/4
f 357/2/4 356/2/4 358/2/4
f 359/2/4 360/2/4 361/2/4
f 361/2/4 360/2/4 362/2/4
f 363/2/4 364/2/4 365/2/4
f 365/2/4 364/2/4 366/2/4
f 367/2/4 368/2/4 369/2/4
f 369/2/4 368/2/4 370/2/4
f 371/1/4 372/1/4 374/1/4
f 373/2/4 374/2/4 375/2/4
f 374/1/4 372/1/4 376/1/4
f 375/2/4 374/2/4 376/2/4
f 373/2/4 375/2/4 377/2/4
f 377/2/4 375/2/4 378/2/4
f 376/1/4 372/1/4 379/1/4
f 379/1/4 372/1/4 380/1/4
f 381/1/4 382/1/4 383/1/4
f 383/1/4 382/1/4 384/1/4
f 385/1/4 386/1/4 387/1/4
f 387/1/4 386/1/4 388/1/4
f 389/1/4 390/1/4 391/1/4
f 391/1/4 390/1/4 392/1/4
f 393/5/4 394/5/4 397/5/4
f 397/5/4 394/5/4 398/5/4
f 395/1/4 396/1/4 399/1/4
f 399/1/4 396/1/4 400/1/4
f 403/5/5 402/5/5 401/5/5
f 404/5/5 402/5/5 403/5/5
f 409/1/5 406/1/5 405/1/5
f 410/1/5 406/1/5 409/1/5
f 411/1/5 408/1/5 407/1/5
f 412/1/5 408/1/5 411/1/5
f 413/1/5 409/1/5 405/1/5
f 414/1/5 409/1/5 413/1/5
f 415/1/5 408/1/5 412/1/5
f 416/1/5 408/1/5 415/1/5
f 417/1/5 413/1/5 405/1/5
f 418/1/5 413/1/5 417/1/5
f 419/1/5 408/1/5 416/1/5
f 420/1/5 408/1/5 419/1/5
f 421/1/5 417/1/5 405/1/5
f 422/1/5 417/1/5 421/1/5
f 423/1/5 408/1/5 420/1/5
f 424/1/5 408/1/5 423/1/5
f 429/1/5 426/1/5 425/1/5
f 432/1/5 428/1/5 427/1/5
f 433/1/5 430/1/5 429/1/5
f 436/1/5 432/1/5 431/1/5
f 437/1/5 434/1/5 433/1/5
f 440/1/5 436/1/5 435/1/5
f 441/1/5 438/1/5 437/1/5
f 441/1/5 429/1/5 425/1/5
f 441/1/5 433/1/5 429/1/5
f 441/1/5 437/1/5 433/1/5
f 442/1/5 438/1/5 441/1/5
f 443/1/5 440/1/5 439/1/5
f 444/1/5 436/1/5 440/1/5
f 444/1/5 440/1/5 443/1/5
f 444/1/5 428/1/5 432/1/5
f 444/1/5 432/1/5 436/1/5
f 447/1/5 446/1/5 445/1/5
f 448/1/5 446/1/5 447/1/5
f 449/1/5 447/1/5 445/1/5
f 450/1/5 446/1/5 448/1/5
f 451/1/5 449/1/5 445/1/5
f 451/1/5 450/1/5 449/1/5
f 452/1/5 446/1/5 450/1/5
f 452/1/5 450/1/5 451/1/5
f 455/1/5 454/1/5 453/1/5
f 456/1/5 454/1/5 455/1/5
f 457/1/5 455/1/5 453/1/5
f 458/1/5 454/1/5 456/1/5
f 459/1/5 457/1/5 453/1/5
f 459/1/5 458/1/5 457/1/5
f 460/1/5 454/1/5 458/1/5
f 460/1/5 458/1/5 459/1/5
f 463/1/5 462/1/5 461/1/5
f 464/1/5 462/1/5 463/1/5
f 465/1/5 463/1/5 461/1/5
f 466/1/5 462/1/5 464/1/5
f 467/1/5 465/1/5 461/1/5
f 467/1/5 466/1/5 465/1/5
f 468/1/5 462/1/5 466/1/5
f 468/1/5 466/1/5 467/1/5
f 471/1/5 470/1/5 469/1/5
f 472/1/5 470/1/5 471/1/5
f 473/1/5 471/1/5 469/1/5
f 474/1/5 470/1/5 472/1/5
f 475/1/5 473/1/5 469/1/5
f 475/1/5 474/1/5 473/1/5
f 476/1/5 470/1/5 474/1/5
f 476/1/5 474/1/5 475/1/5
f 481/4/5 478/4/5 477/4/5
f 482/4/5 478/4/5 481/4/5
f 483/4/5 480/4/5 479/4/5
f 484/4/5 480/4/5 483/4/5
f 490/3/5 486/3/5 485/3/5
f 491/3/5 486/3/5 490/3/5
f 492/3/5 488/3/5 487/3/5
f 493/3/5 488/3/5 492/3/5
f 495/1/5 490/1/5 489/1/5
f 496/3/5 491/3/5 490/3/5
f 496/1/5 490/1/5 495/1/5
f 497/1/5 492/1/5 491/1/5
f 497/3/5 491/3/5 496/3/5
f 498/3/5 493/3/5 492/3/5
f 498/1/5 492/1/5 497/1/5
f 499/1/5 494/1/5 493/1/5
f 499/3/5 493/3/5 498/3/5
f 500/1/5 494/1/5 499/1/5
f 501/4/5 497/4/5 496/4/5
f 502/4/5 497/4/5 501/4/5
f 503/4/5 497/4/5 502/4/5
f 504/4/5 497/4/5 503/4/5
f 505/4/5 499/4/5 498/4/5
f 506/4/5 499/4/5 505/4/5
f 507/4/5 499/4/5 506/4/5
f 508/4/5 499/4/5 507/4/5
f 509/4/5 503/4/5 502/4/5
f 510/4/5 503/4/5 509/4/5
f 511/4/5 507/4/5 506/4/5
f 512/4/5 507/4/5 511/4/5
f 513/5/6 514/5/6 515/5/6
f 515/5/6 514/5/6 516/5/6
f 513/5/6 515/5/6 517/5/6
f 517/5/6 515/5/6 518/5/6
f 516/5/6 514/5/6 519/5/6
f 519/5/6 514/5/6 520/5/6
f 513/5/6 517/5/6 521/5/6
f 521/5/6 517/5/6 522/5/6
f 520/5/6 514/5/6 523/5/6
f 523/5/6 514/5/6 524/5/6
f 513/5/6 521/5/6 525/5/6
f 525/5/6 521/5/6 526/5/6
f 524/5/6 514/5/6 527/5/6
f 527/5/6 514/5/6 528/5/6
f 513/5/6 525/5/6 529/5/6
f 529/5/6 525/5/6 530/5/6
f 528/5/6 514/5/6 531/5/6
f 531/5/6 514/5/6 532/5/6
f 513/5/6 529/5/6 533/5/6
f 532/5/6 514/5/6 536/5/6
f 533/5/6 534/5/6 537/5/6
f 535/5/6 536/5/6 540/5/6
f 537/5/6 538/5/6 541/5/6
f 539/5/6 540/5/6 544/5/6
f 541/5/6 542/5/6 545/5/6
f 545/5/6 546/5/6 547/5/6
f 543/5/6 544/5/6 548/5/6
f 545/5/6 547/5/6 549/5/6
f 547/5/6 548/5/6 549/5/6
f 513/5/6 533/5/6 549/5/6
f 533/5/6 537/5/6 549/5/6
f 541/5/6 545/5/6 549/5/6
f 537/5/6 541/5/6 549/5/6
f 548/5/6 544/5/6 550/5/6
f 549/5/6 548/5/6 550/5/6
f 536/5/6 514/5/6 550/5/6
f 544/5/6 540/5/6 550/5/6
f 540/5/6 536/5/6 550/5/6
f 551/2/6 552/2/6 553/2/6
f 553/2/6 552/2/6 554/2/6
f 555/1/6 556/1/6 557/1/6
f 557/1/6 556/1/6 558/1/6
f 559/4/6 560/4/6 563/4/6
f 563/4/6 560/4/6 564/4/6
f 561/4/6 562/4/6 565/4/6
f 565/4/6 562/4/6 566/4/6
f 567/4/6 568/4/6 571/4/6
f 571/4/6 568/4/6 572/4/6
f 569/4/6 570/4/6 573/4/6
f 573/4/6 570/4/6 574/4/6
f 575/4/6 576/4/6 579/4/6
f 579/4/6 576/4/6 580/4/6
f 577/4/6 578/4/6 581/4/6
f 581/4/6 578/4/6 582/4/6
f 583/3/6 584/3/6 587/3/6
f 587/3/6 584/3/6 588/3/6
f 585/3/6 586/3/6 589/3/6
f 589/3/6 586/3/6 590/3/6
f 591/1/6 592/1/6 593/1/6
f 593/1/6 592/1/6 594/1/6
